# xmcd
#
# Track frame offsets: 
#        150
#        18115
#        32930
#        48230
#        60084
#        83299
#        96988
#        111658
#        139529
#        153784
#
# Disc length: 2394 seconds
#
# Revision: 0
# Processed by: cddbd v1.5.2PL0 Copyright (c) Steve Scherf et al.
# Submitted via: ExactAudioCopyFreeDBPlugin 1.0
#
DISCID=6c09580a
DTITLE=Frank Foster - Good Country Music
DYEAR=2016
DGENRE=Country
TTITLE0=Unwind
TTITLE1=Come on Over
TTITLE2=Back Road Buzz
TTITLE3=Where the Road Gets Rough
TTITLE4=Red Bird
TTITLE5=Gabriel
TTITLE6=Good Country Music
TTITLE7=Louisiana
TTITLE8=Pete and John
TTITLE9=Carolina Blue
EXTD=
EXTT0=
EXTT1=
EXTT2=
EXTT3=
EXTT4=
EXTT5=
EXTT6=
EXTT7=
EXTT8=
EXTT9=
PLAYORDER=
